# xmcd
#
# Track frame offsets: 
#        150
#        14027
#        30405
#        45830
#        61682
#        79055
#        96317
#        109102
#        132190
#        148817
#        166067
#        179867
#        196067
#        219212
#        234482
#        249280
#        269572
#        288375
#        303112
#
# Disc length: 4298 seconds
#
# Revision: 3
# Processed by: cddbd v1.5.2PL0 Copyright (c) Steve Scherf et al.
# Submitted via: ExactAudioCopy v0.95b4
#
DISCID=0110c813
DTITLE=Ian Tyson - All the Good'uns
DYEAR=1996
DGENRE=Country
TTITLE0=The Wonder of it All
TTITLE1=Alberta's Child
TTITLE2=Irving Berlin (is 100 yrs old today)
TTITLE3=M.C. Horses
TTITLE4=Springtime in Alberta
TTITLE5=Jaquima to Freno
TTITLE6=Navajo Rug
TTITLE7=Claude Dallas
TTITLE8=Magpie
TTITLE9=The Steeldust Line
TTITLE10=Rockies Turn to Rose
TTITLE11=Alcohol in the Bloodstream
TTITLE12=The Old Double Diamond
TTITLE13=Barrel Racing Angel
TTITLE14=Casey Tibbs
TTITLE15=Will James
TTITLE16=Fifty Years Ago
TTITLE17='Til The Circle is Through
TTITLE18=The Gift
EXTD=
EXTT0=
EXTT1=
EXTT2=
EXTT3=
EXTT4=
EXTT5=
EXTT6=
EXTT7=
EXTT8=
EXTT9=
EXTT10=
EXTT11=
EXTT12=
EXTT13=
EXTT14=
EXTT15=
EXTT16=
EXTT17=
EXTT18=
PLAYORDER=
